<?xml version="1.0" standalone="no" ?>
<!DOCTYPE svg PUBLIC "-//W3C//DTD SVG 1.1//EN" "http://www.w3.org/Graphics/SVG/1.1/DTD/svg11.dtd">

<svg width="100%" height="100%" xmlns="http://www.w3.org/2000/svg" version="1.1">
<rect x="160" y ="320" width="16" height="16" style="fill:rgb(255, 255, 0);stroke-width:2;stroke:rgb(0,0,255)" />
<circle cx="168" cy="328" r="4" stroke="rgb(0,0,255)" stroke-width="2" fill = "blue"/>
<rect x="176" y ="336" width="16" height="16" style="fill:rgb(255, 255, 0);stroke-width:2;stroke:rgb(0,0,255)" />
<circle cx="184" cy="344" r="4" stroke="rgb(0,0,255)" stroke-width="2" fill = "blue"/>
<rect x="192" y ="352" width="16" height="16" style="fill:rgb(255, 255, 0);stroke-width:2;stroke:rgb(0,0,255)" />
<circle cx="200" cy="360" r="4" stroke="rgb(0,0,255)" stroke-width="2" fill = "blue"/>
<rect x="208" y ="368" width="16" height="16" style="fill:rgb(255, 255, 0);stroke-width:2;stroke:rgb(0,0,255)" />
<circle cx="216" cy="376" r="4" stroke="rgb(0,0,255)" stroke-width="2" fill = "blue"/>
<rect x="224" y ="384" width="16" height="16" style="fill:rgb(255, 255, 0);stroke-width:2;stroke:rgb(0,0,255)" />
<circle cx="232" cy="392" r="4" stroke="rgb(0,0,255)" stroke-width="2" fill = "blue"/>
<rect x="240" y ="400" width="16" height="16" style="fill:rgb(255, 255, 0);stroke-width:2;stroke:rgb(0,0,255)" />
<circle cx="248" cy="408" r="4" stroke="rgb(0,0,255)" stroke-width="2" fill = "blue"/>
<rect x="256" y ="416" width="16" height="16" style="fill:rgb(255, 255, 0);stroke-width:2;stroke:rgb(0,0,255)" />
<circle cx="264" cy="424" r="4" stroke="rgb(0,0,255)" stroke-width="2" fill = "blue"/>
<rect x="272" y ="432" width="16" height="16" style="fill:rgb(255, 255, 0);stroke-width:2;stroke:rgb(0,0,255)" />
<circle cx="280" cy="440" r="4" stroke="rgb(0,0,255)" stroke-width="2" fill = "blue"/>
<rect x="288" y ="448" width="16" height="16" style="fill:rgb(255, 255, 0);stroke-width:2;stroke:rgb(0,0,255)" />
<circle cx="296" cy="456" r="4" stroke="rgb(0,0,255)" stroke-width="2" fill = "blue"/>
<rect x="304" y ="464" width="16" height="16" style="fill:rgb(255, 255, 0);stroke-width:2;stroke:rgb(0,0,255)" />
<circle cx="312" cy="472" r="4" stroke="rgb(0,0,255)" stroke-width="2" fill = "blue"/>
<rect x="320" y ="480" width="16" height="16" style="fill:rgb(255, 255, 0);stroke-width:2;stroke:rgb(0,0,255)" />
<circle cx="328" cy="488" r="4" stroke="rgb(0,0,255)" stroke-width="2" fill = "blue"/>
<rect x="336" y ="496" width="16" height="16" style="fill:rgb(255, 255, 0);stroke-width:2;stroke:rgb(0,0,255)" />
<circle cx="344" cy="504" r="4" stroke="rgb(0,0,255)" stroke-width="2" fill = "blue"/>
<rect x="352" y ="512" width="16" height="16" style="fill:rgb(255, 255, 0);stroke-width:2;stroke:rgb(0,0,255)" />
<circle cx="360" cy="520" r="4" stroke="rgb(0,0,255)" stroke-width="2" fill = "blue"/>
<rect x="368" y ="528" width="16" height="16" style="fill:rgb(255, 255, 0);stroke-width:2;stroke:rgb(0,0,255)" />
<circle cx="376" cy="536" r="4" stroke="rgb(0,0,255)" stroke-width="2" fill = "blue"/>
<rect x="384" y ="544" width="16" height="16" style="fill:rgb(255, 255, 0);stroke-width:2;stroke:rgb(0,0,255)" />
<circle cx="392" cy="552" r="4" stroke="rgb(0,0,255)" stroke-width="2" fill = "blue"/>
<rect x="400" y ="560" width="16" height="16" style="fill:rgb(255, 255, 0);stroke-width:2;stroke:rgb(0,0,255)" />
<circle cx="408" cy="568" r="4" stroke="rgb(0,0,255)" stroke-width="2" fill = "blue"/>
<rect x="416" y ="576" width="16" height="16" style="fill:rgb(255, 255, 0);stroke-width:2;stroke:rgb(0,0,255)" />
<circle cx="424" cy="584" r="4" stroke="rgb(0,0,255)" stroke-width="2" fill = "blue"/>
<rect x="432" y ="592" width="16" height="16" style="fill:rgb(255, 255, 0);stroke-width:2;stroke:rgb(0,0,255)" />
<circle cx="440" cy="600" r="4" stroke="rgb(0,0,255)" stroke-width="2" fill = "blue"/>
<rect x="448" y ="608" width="16" height="16" style="fill:rgb(255, 255, 0);stroke-width:2;stroke:rgb(0,0,255)" />
<circle cx="456" cy="616" r="4" stroke="rgb(0,0,255)" stroke-width="2" fill = "blue"/>
<rect x="464" y ="624" width="16" height="16" style="fill:rgb(255, 255, 0);stroke-width:2;stroke:rgb(0,0,255)" />
<circle cx="472" cy="632" r="4" stroke="rgb(0,0,255)" stroke-width="2" fill = "blue"/>
<rect x="480" y ="640" width="16" height="16" style="fill:rgb(255, 255, 0);stroke-width:2;stroke:rgb(0,0,255)" />
<circle cx="488" cy="648" r="4" stroke="rgb(0,0,255)" stroke-width="2" fill = "blue"/>
<line x1="168" y1="328" x2="488" y2="648" style="stroke:rgb(0,0,255);stroke-width:2" />
</svg>
